# xmcd
#
# Track frame offsets: 
#        150
#        22885
#        50430
#        78742
#        95997
#        116230
#        132485
#        157009
#        183840
#        240571
#        267042
#        295702
#
# Disc length: 4476 seconds
#
# Revision: 0
# Processed by: cddbd v1.5.1PL2 Copyright (c) Steve Scherf et al.
# Submitted via: ExactAudioCopy v0.95b3
#
DISCID=a7117a0c
DTITLE=Sherman Doucette - Live Blues 2
DYEAR=1900
DGENRE=Blues
TTITLE0=You Don't Have To Go
TTITLE1=Oh Pretty Woman
TTITLE2=Long Distance Call
TTITLE3=Crazy Mixed Up World
TTITLE4=Sideways
TTITLE5=Early In The Morning
TTITLE6=Gonna Move To The Outskirts Of Town
TTITLE7=Don't Lose Your Cool
TTITLE8=Driftin' Blues
TTITLE9=Strut
TTITLE10=Blues Ain't Nothin'
TTITLE11=Bb Boogie
EXTD=
EXTT0=
EXTT1=
EXTT2=
EXTT3=
EXTT4=
EXTT5=
EXTT6=
EXTT7=
EXTT8=
EXTT9=
EXTT10=
EXTT11=
PLAYORDER=
